Wavefont-SemiBold.ufo
<glyph name="_2" format="2">
  <advance width="64.0"/>
  <unicode hex="0102"/>
  <unicode hex="0062"/>
  <outline>
    <contour>
      <point x="10.0" y="20.0" type="curve" smooth="yes"/>
      <point x="54.0" y="20.0" type="line"/>
      <point x="59.5" y="20.0"/>
      <point x="64.0" y="15.5"/>
      <point x="64.0" y="10.0" type="curve" smooth="yes"/>
      <point x="64.0" y="10.0" type="line"/>
      <point x="64.0" y="4.5"/>
      <point x="59.5" y="0.0"/>
      <point x="54.0" y="0.0" type="curve" smooth="yes"/>
      <point x="10.0" y="0.0" type="line"/>
      <point x="4.5" y="0.0"/>
      <point x="0.0" y="4.5"/>
      <point x="0.0" y="10.0" type="curve" smooth="yes"/>
      <point x="0.0" y="10.0" type="line"/>
      <point x="0.0" y="15.5"/>
      <point x="4.5" y="20.0"/>
    </contour>
  </outline>
</glyph>
<glyph name="_4" format="2">
  <advance width="64.0"/>
  <unicode hex="0104"/>
  <unicode hex="0063"/>
  <outline>
    <contour>
      <point x="20.0" y="40.0" type="curve" smooth="yes"/>
      <point x="44.0" y="40.0" type="line"/>
      <point x="55.0" y="40.0"/>
      <point x="64.0" y="31.0"/>
      <point x="64.0" y="20.0" type="curve" smooth="yes"/>
      <point x="64.0" y="20.0" type="line"/>
      <point x="64.0" y="9.0"/>
      <point x="55.0" y="0.0"/>
      <point x="44.0" y="0.0" type="curve" smooth="yes"/>
      <point x="20.0" y="0.0" type="line"/>
      <point x="9.0" y="0.0"/>
      <point x="0.0" y="9.0"/>
      <point x="0.0" y="20.0" type="curve" smooth="yes"/>
      <point x="0.0" y="20.0" type="line"/>
      <point x="0.0" y="31.0"/>
      <point x="9.0" y="40.0"/>
    </contour>
  </outline>
</glyph>
<glyph name="_8" format="2">
  <advance width="64.0"/>
  <unicode hex="0108"/>
  <unicode hex="0065"/>
  <outline>
    <contour>
      <point x="0.0" y="32.37959183673469" type="line"/>
      <point x="0.0" y="48.37959183673469" type="line"/>
      <point x="64.0" y="48.37959183673469" type="line"/>
      <point x="64.0" y="32.37959183673469" type="line"/>
    </contour>
    <component base="cap"/>
    <component base="cap" yOffset="16.0"/>
  </outline>
</glyph>
<glyph name="_9" format="2">
  <advance width="64.0"/>
  <unicode hex="0109"/>
  <outline>
    <contour>
      <point x="0.0" y="32.37959183673469" type="line"/>
      <point x="0.0" y="58.37959183673469" type="line"/>
      <point x="64.0" y="58.37959183673469" type="line"/>
      <point x="64.0" y="32.37959183673469" type="line"/>
    </contour>
    <component base="cap"/>
    <component base="cap" yOffset="26.0"/>
  </outline>
</glyph>
<glyph name="_10" format="2">
  <advance width="64.0"/>
  <unicode hex="010A"/>
  <unicode hex="0031"/>
  <unicode hex="0066"/>
  <outline>
    <contour>
      <point x="0.0" y="32.37959183673469" type="line"/>
      <point x="0.0" y="68.37959183673469" type="line"/>
      <point x="64.0" y="68.37959183673469" type="line"/>
      <point x="64.0" y="32.37959183673469" type="line"/>
    </contour>
    <component base="cap"/>
    <component base="cap" yOffset="36.0"/>
  </outline>
</glyph>
<glyph name="_11" format="2">
  <advance width="64.0"/>
  <unicode hex="010B"/>
  <outline>
    <contour>
      <point x="0.0" y="32.37959183673469" type="line"/>
      <point x="0.0" y="78.37959183673469" type="line"/>
      <point x="64.0" y="78.37959183673469" type="line"/>
      <point x="64.0" y="32.37959183673469" type="line"/>
    </contour>
    <component base="cap"/>
    <component base="cap" yOffset="46.0"/>
  </outline>
</glyph>
<glyph name="_12" format="2">
  <advance width="64.0"/>
  <unicode hex="010C"/>
  <unicode hex="0067"/>
  <outline>
    <contour>
      <point x="0.0" y="32.37959183673469" type="line"/>
      <point x="0.0" y="88.37959183673469" type="line"/>
      <point x="64.0" y="88.37959183673469" type="line"/>
      <point x="64.0" y="32.37959183673469" type="line"/>
    </contour>
    <component base="cap"/>
    <component base="cap" yOffset="56.0"/>
  </outline>
</glyph>
<glyph name="_13" format="2">
  <advance width="64.0"/>
  <unicode hex="010D"/>
  <outline>
    <contour>
      <point x="0.0" y="32.37959183673469" type="line"/>
      <point x="0.0" y="98.37959183673469" type="line"/>
      <point x="64.0" y="98.37959183673469" type="line"/>
      <point x="64.0" y="32.37959183673469" type="line"/>
    </contour>
    <component base="cap"/>
    <component base="cap" yOffset="66.0"/>
  </outline>
</glyph>
<glyph name="_14" format="2">
  <advance width="64.0"/>
  <unicode hex="010E"/>
  <unicode hex="2582"/>
  <unicode hex="0068"/>
  <outline>
    <contour>
      <point x="0.0" y="32.37959183673469" type="line"/>
      <point x="0.0" y="108.37959183673469" type="line"/>
      <point x="64.0" y="108.37959183673469" type="line"/>
      <point x="64.0" y="32.37959183673469" type="line"/>
    </contour>
    <component base="cap"/>
    <component base="cap" yOffset="76.0"/>
  </outline>
</glyph>
<glyph name="_15" format="2">
  <advance width="64.0"/>
  <unicode hex="010F"/>
  <outline>
    <contour>
      <point x="0.0" y="32.37959183673469" type="line"/>
      <point x="0.0" y="118.37959183673469" type="line"/>
      <point x="64.0" y="118.37959183673469" type="line"/>
      <point x="64.0" y="32.37959183673469" type="line"/>
    </contour>
    <component base="cap"/>
    <component base="cap" yOffset="86.0"/>
  </outline>
</glyph>
<glyph name="_16" format="2">
  <advance width="64.0"/>
  <unicode hex="0110"/>
  <unicode hex="0069"/>
  <outline>
    <contour>
      <point x="0.0" y="32.37959183673469" type="line"/>
      <point x="0.0" y="128.3795918367347" type="line"/>
      <point x="64.0" y="128.3795918367347" type="line"/>
      <point x="64.0" y="32.37959183673469" type="line"/>
    </contour>
    <component base="cap"/>
    <component base="cap" yOffset="96.0"/>
  </outline>
</glyph>
<glyph name="_20" format="2">
  <advance width="64.0"/>
  <unicode hex="0114"/>
  <unicode hex="0032"/>
  <unicode hex="006B"/>
  <outline>
    <contour>
      <point x="0.0" y="32.37959183673469" type="line"/>
      <point x="0.0" y="168.3795918367347" type="line"/>
      <point x="64.0" y="168.3795918367347" type="line"/>
      <point x="64.0" y="32.37959183673469" type="line"/>
    </contour>
    <component base="cap"/>
    <component base="cap" yOffset="136.0"/>
  </outline>
</glyph>
<glyph name="_22" format="2">
  <advance width="64.0"/>
  <unicode hex="0116"/>
  <unicode hex="006C"/>
  <outline>
    <contour>
      <point x="0.0" y="32.37959183673469" type="line"/>
      <point x="0.0" y="188.3795918367347" type="line"/>
      <point x="64.0" y="188.3795918367347" type="line"/>
      <point x="64.0" y="32.37959183673469" type="line"/>
    </contour>
    <component base="cap"/>
    <component base="cap" yOffset="156.0"/>
  </outline>
</glyph>
<glyph name="_24" format="2">
  <advance width="64.0"/>
  <unicode hex="0118"/>
  <unicode hex="006D"/>
  <outline>
    <contour>
      <point x="0.0" y="32.37959183673469" type="line"/>
      <point x="0.0" y="208.3795918367347" type="line"/>
      <point x="64.0" y="208.3795918367347" type="line"/>
      <point x="64.0" y="32.37959183673469" type="line"/>
    </contour>
    <component base="cap"/>
    <component base="cap" yOffset="176.0"/>
  </outline>
</glyph>
<glyph name="_25" format="2">
  <advance width="64.0"/>
  <unicode hex="0119"/>
  <outline>
    <contour>
      <point x="0.0" y="32.37959183673469" type="line"/>
      <point x="0.0" y="218.3795918367347" type="line"/>
      <point x="64.0" y="218.3795918367347" type="line"/>
      <point x="64.0" y="32.37959183673469" type="line"/>
    </contour>
    <component base="cap"/>
    <component base="cap" yOffset="186.0"/>
  </outline>
</glyph>
<glyph name="_26" format="2">
  <advance width="64.0"/>
  <unicode hex="011A"/>
  <unicode hex="006E"/>
  <outline>
    <contour>
      <point x="0.0" y="32.37959183673469" type="line"/>
      <point x="0.0" y="228.3795918367347" type="line"/>
      <point x="64.0" y="228.3795918367347" type="line"/>
      <point x="64.0" y="32.37959183673469" type="line"/>
    </contour>
    <component base="cap"/>
    <component base="cap" yOffset="196.0"/>
  </outline>
</glyph>
<glyph name="_27" format="2">
  <advance width="64.0"/>
  <unicode hex="011B"/>
  <outline>
    <contour>
      <point x="0.0" y="32.37959183673469" type="line"/>
      <point x="0.0" y="238.3795918367347" type="line"/>
      <point x="64.0" y="238.3795918367347" type="line"/>
      <point x="64.0" y="32.37959183673469" type="line"/>
    </contour>
    <component base="cap"/>
    <component base="cap" yOffset="206.0"/>
  </outline>
</glyph>
<glyph name="_28" format="2">
  <advance width="64.0"/>
  <unicode hex="011C"/>
  <unicode hex="2583"/>
  <unicode hex="006F"/>
  <outline>
    <contour>
      <point x="0.0" y="32.37959183673469" type="line"/>
      <point x="0.0" y="248.3795918367347" type="line"/>
      <point x="64.0" y="248.3795918367347" type="line"/>
      <point x="64.0" y="32.37959183673469" type="line"/>
    </contour>
    <component base="cap"/>
    <component base="cap" yOffset="216.0"/>
  </outline>
</glyph>
<glyph name="_29" format="2">
  <advance width="64.0"/>
  <unicode hex="011D"/>
  <outline>
    <contour>
      <point x="0.0" y="32.37959183673469" type="line"/>
      <point x="0.0" y="258.3795918367347" type="line"/>
      <point x="64.0" y="258.3795918367347" type="line"/>
      <point x="64.0" y="32.37959183673469" type="line"/>
    </contour>
    <component base="cap"/>
    <component base="cap" yOffset="226.0"/>
  </outline>
</glyph>
<glyph name="_34" format="2">
  <advance width="64.0"/>
  <unicode hex="0122"/>
  <unicode hex="0072"/>
  <outline>
    <contour>
      <point x="0.0" y="32.37959183673469" type="line"/>
      <point x="0.0" y="308.3795918367347" type="line"/>
      <point x="64.0" y="308.3795918367347" type="line"/>
      <point x="64.0" y="32.37959183673469" type="line"/>
    </contour>
    <component base="cap"/>
    <component base="cap" yOffset="276.0"/>
  </outline>
</glyph>
<glyph name="_36" format="2">
  <advance width="64.0"/>
  <unicode hex="0124"/>
  <unicode hex="0073"/>
  <outline>
    <contour>
      <point x="0.0" y="32.37959183673469" type="line"/>
      <point x="0.0" y="328.3795918367347" type="line"/>
      <point x="64.0" y="328.3795918367347" type="line"/>
      <point x="64.0" y="32.37959183673469" type="line"/>
    </contour>
    <component base="cap"/>
    <component base="cap" yOffset="296.0"/>
  </outline>
</glyph>
<glyph name="_38" format="2">
  <advance width="64.0"/>
  <unicode hex="0126"/>
  <unicode hex="0074"/>
  <outline>
    <contour>
      <point x="0.0" y="32.37959183673469" type="line"/>
      <point x="0.0" y="348.3795918367347" type="line"/>
      <point x="64.0" y="348.3795918367347" type="line"/>
      <point x="64.0" y="32.37959183673469" type="line"/>
    </contour>
    <component base="cap"/>
    <component base="cap" yOffset="316.0"/>
  </outline>
</glyph>
<glyph name="_39" format="2">
  <advance width="64.0"/>
  <unicode hex="0127"/>
  <outline>
    <contour>
      <point x="0.0" y="32.37959183673469" type="line"/>
      <point x="0.0" y="358.3795918367347" type="line"/>
      <point x="64.0" y="358.3795918367347" type="line"/>
      <point x="64.0" y="32.37959183673469" type="line"/>
    </contour>
    <component base="cap"/>
    <component base="cap" yOffset="326.0"/>
  </outline>
</glyph>
<glyph name="_40" format="2">
  <advance width="64.0"/>
  <unicode hex="0128"/>
  <unicode hex="0034"/>
  <unicode hex="0075"/>
  <outline>
    <contour>
      <point x="0.0" y="32.37959183673469" type="line"/>
      <point x="0.0" y="368.3795918367347" type="line"/>
      <point x="64.0" y="368.3795918367347" type="line"/>
      <point x="64.0" y="32.37959183673469" type="line"/>
    </contour>
    <component base="cap"/>
    <component base="cap" yOffset="336.0"/>
  </outline>
</glyph>
<glyph name="_44" format="2">
  <advance width="64.0"/>
  <unicode hex="012C"/>
  <unicode hex="0077"/>
  <outline>
    <contour>
      <point x="0.0" y="32.37959183673469" type="line"/>
      <point x="0.0" y="408.3795918367347" type="line"/>
      <point x="64.0" y="408.3795918367347" type="line"/>
      <point x="64.0" y="32.37959183673469" type="line"/>
    </contour>
    <component base="cap"/>
    <component base="cap" yOffset="376.0"/>
  </outline>
</glyph>
<glyph name="_46" format="2">
  <advance width="64.0"/>
  <unicode hex="012E"/>
  <unicode hex="0078"/>
  <outline>
    <contour>
      <point x="0.0" y="32.37959183673469" type="line"/>
      <point x="0.0" y="428.3795918367347" type="line"/>
      <point x="64.0" y="428.3795918367347" type="line"/>
      <point x="64.0" y="32.37959183673469" type="line"/>
    </contour>
    <component base="cap"/>
    <component base="cap" yOffset="396.0"/>
  </outline>
</glyph>
<glyph name="_47" format="2">
  <advance width="64.0"/>
  <unicode hex="012F"/>
  <outline>
    <contour>
      <point x="0.0" y="32.37959183673469" type="line"/>
      <point x="0.0" y="438.3795918367347" type="line"/>
      <point x="64.0" y="438.3795918367347" type="line"/>
      <point x="64.0" y="32.37959183673469" type="line"/>
    </contour>
    <component base="cap"/>
    <component base="cap" yOffset="406.0"/>
  </outline>
</glyph>
<glyph name="_50" format="2">
  <advance width="64.0"/>
  <unicode hex="0132"/>
  <unicode hex="0035"/>
  <unicode hex="007A"/>
  <outline>
    <contour>
      <point x="0.0" y="32.37959183673469" type="line"/>
      <point x="0.0" y="468.3795918367347" type="line"/>
      <point x="64.0" y="468.3795918367347" type="line"/>
      <point x="64.0" y="32.37959183673469" type="line"/>
    </contour>
    <component base="cap"/>
    <component base="cap" yOffset="436.0"/>
  </outline>
</glyph>
<glyph name="_54" format="2">
  <advance width="64.0"/>
  <unicode hex="0136"/>
  <unicode hex="0042"/>
  <outline>
    <contour>
      <point x="0.0" y="32.37959183673469" type="line"/>
      <point x="0.0" y="508.3795918367347" type="line"/>
      <point x="64.0" y="508.3795918367347" type="line"/>
      <point x="64.0" y="32.37959183673469" type="line"/>
    </contour>
    <component base="cap"/>
    <component base="cap" yOffset="476.0"/>
  </outline>
</glyph>
<glyph name="_56" format="2">
  <advance width="64.0"/>
  <unicode hex="0138"/>
  <unicode hex="2585"/>
  <unicode hex="0043"/>
  <outline>
    <contour>
      <point x="0.0" y="32.37959183673469" type="line"/>
      <point x="0.0" y="528.3795918367347" type="line"/>
      <point x="64.0" y="528.3795918367347" type="line"/>
      <point x="64.0" y="32.37959183673469" type="line"/>
    </contour>
    <component base="cap"/>
    <component base="cap" yOffset="496.0"/>
  </outline>
</glyph>
<glyph name="_57" format="2">
  <advance width="64.0"/>
  <unicode hex="0139"/>
  <outline>
    <contour>
      <point x="0.0" y="32.37959183673469" type="line"/>
      <point x="0.0" y="538.3795918367347" type="line"/>
      <point x="64.0" y="538.3795918367347" type="line"/>
      <point x="64.0" y="32.37959183673469" type="line"/>
    </contour>
    <component base="cap"/>
    <component base="cap" yOffset="506.0"/>
  </outline>
</glyph>
<glyph name="_58" format="2">
  <advance width="64.0"/>
  <unicode hex="013A"/>
  <unicode hex="0044"/>
  <outline>
    <contour>
      <point x="0.0" y="32.37959183673469" type="line"/>
      <point x="0.0" y="548.3795918367347" type="line"/>
      <point x="64.0" y="548.3795918367347" type="line"/>
      <point x="64.0" y="32.37959183673469" type="line"/>
    </contour>
    <component base="cap"/>
    <component base="cap" yOffset="516.0"/>
  </outline>
</glyph>
<glyph name="_59" format="2">
  <advance width="64.0"/>
  <unicode hex="013B"/>
  <outline>
    <contour>
      <point x="0.0" y="32.37959183673469" type="line"/>
      <point x="0.0" y="558.3795918367347" type="line"/>
      <point x="64.0" y="558.3795918367347" type="line"/>
      <point x="64.0" y="32.37959183673469" type="line"/>
    </contour>
    <component base="cap"/>
    <component base="cap" yOffset="526.0"/>
  </outline>
</glyph>
<glyph name="_61" format="2">
  <advance width="64.0"/>
  <unicode hex="013D"/>
  <outline>
    <contour>
      <point x="0.0" y="32.37959183673469" type="line"/>
      <point x="0.0" y="578.3795918367347" type="line"/>
      <point x="64.0" y="578.3795918367347" type="line"/>
      <point x="64.0" y="32.37959183673469" type="line"/>
    </contour>
    <component base="cap"/>
    <component base="cap" yOffset="546.0"/>
  </outline>
</glyph>
<glyph name="_62" format="2">
  <advance width="64.0"/>
  <unicode hex="013E"/>
  <unicode hex="0046"/>
  <outline>
    <contour>
      <point x="0.0" y="32.37959183673469" type="line"/>
      <point x="0.0" y="588.3795918367347" type="line"/>
      <point x="64.0" y="588.3795918367347" type="line"/>
      <point x="64.0" y="32.37959183673469" type="line"/>
    </contour>
    <component base="cap"/>
    <component base="cap" yOffset="556.0"/>
  </outline>
</glyph>
<glyph name="_63" format="2">
  <advance width="64.0"/>
  <unicode hex="013F"/>
  <outline>
    <contour>
      <point x="0.0" y="32.37959183673469" type="line"/>
      <point x="0.0" y="598.3795918367347" type="line"/>
      <point x="64.0" y="598.3795918367347" type="line"/>
      <point x="64.0" y="32.37959183673469" type="line"/>
    </contour>
    <component base="cap"/>
    <component base="cap" yOffset="566.0"/>
  </outline>
</glyph>
<glyph name="_64" format="2">
  <advance width="64.0"/>
  <unicode hex="0140"/>
  <unicode hex="0047"/>
  <outline>
    <contour>
      <point x="0.0" y="32.37959183673469" type="line"/>
      <point x="0.0" y="608.3795918367347" type="line"/>
      <point x="64.0" y="608.3795918367347" type="line"/>
      <point x="64.0" y="32.37959183673469" type="line"/>
    </contour>
    <component base="cap"/>
    <component base="cap" yOffset="576.0"/>
  </outline>
</glyph>
<glyph name="_65" format="2">
  <advance width="64.0"/>
  <unicode hex="0141"/>
  <outline>
    <contour>
      <point x="0.0" y="32.37959183673469" type="line"/>
      <point x="0.0" y="618.3795918367347" type="line"/>
      <point x="64.0" y="618.3795918367347" type="line"/>
      <point x="64.0" y="32.37959183673469" type="line"/>
    </contour>
    <component base="cap"/>
    <component base="cap" yOffset="586.0"/>
  </outline>
</glyph>
<glyph name="_68" format="2">
  <advance width="64.0"/>
  <unicode hex="0144"/>
  <unicode hex="0049"/>
  <outline>
    <contour>
      <point x="0.0" y="32.37959183673469" type="line"/>
      <point x="0.0" y="648.3795918367347" type="line"/>
      <point x="64.0" y="648.3795918367347" type="line"/>
      <point x="64.0" y="32.37959183673469" type="line"/>
    </contour>
    <component base="cap"/>
    <component base="cap" yOffset="616.0"/>
  </outline>
</glyph>
<glyph name="_70" format="2">
  <advance width="64.0"/>
  <unicode hex="0146"/>
  <unicode hex="0037"/>
  <unicode hex="004A"/>
  <outline>
    <contour>
      <point x="0.0" y="32.37959183673469" type="line"/>
      <point x="0.0" y="668.3795918367347" type="line"/>
      <point x="64.0" y="668.3795918367347" type="line"/>
      <point x="64.0" y="32.37959183673469" type="line"/>
    </contour>
    <component base="cap"/>
    <component base="cap" yOffset="636.0"/>
  </outline>
</glyph>
<glyph name="_71" format="2">
  <advance width="64.0"/>
  <unicode hex="0147"/>
  <outline>
    <contour>
      <point x="0.0" y="32.37959183673469" type="line"/>
      <point x="0.0" y="678.3795918367347" type="line"/>
      <point x="64.0" y="678.3795918367347" type="line"/>
      <point x="64.0" y="32.37959183673469" type="line"/>
    </contour>
    <component base="cap"/>
    <component base="cap" yOffset="646.0"/>
  </outline>
</glyph>
<glyph name="_72" format="2">
  <advance width="64.0"/>
  <unicode hex="0148"/>
  <unicode hex="2586"/>
  <unicode hex="004B"/>
  <outline>
    <contour>
      <point x="0.0" y="32.37959183673469" type="line"/>
      <point x="0.0" y="688.3795918367347" type="line"/>
      <point x="64.0" y="688.3795918367347" type="line"/>
      <point x="64.0" y="32.37959183673469" type="line"/>
    </contour>
    <component base="cap"/>
    <component base="cap" yOffset="656.0"/>
  </outline>
</glyph>
<glyph name="_74" format="2">
  <advance width="64.0"/>
  <unicode hex="014A"/>
  <unicode hex="004C"/>
  <outline>
    <contour>
      <point x="0.0" y="32.37959183673469" type="line"/>
      <point x="0.0" y="708.3795918367347" type="line"/>
      <point x="64.0" y="708.3795918367347" type="line"/>
      <point x="64.0" y="32.37959183673469" type="line"/>
    </contour>
    <component base="cap"/>
    <component base="cap" yOffset="676.0"/>
  </outline>
</glyph>
<glyph name="_78" format="2">
  <advance width="64.0"/>
  <unicode hex="014E"/>
  <unicode hex="004E"/>
  <outline>
    <contour>
      <point x="0.0" y="32.37959183673469" type="line"/>
      <point x="0.0" y="748.3795918367347" type="line"/>
      <point x="64.0" y="748.3795918367347" type="line"/>
      <point x="64.0" y="32.37959183673469" type="line"/>
    </contour>
    <component base="cap"/>
    <component base="cap" yOffset="716.0"/>
  </outline>
</glyph>
<glyph name="_80" format="2">
  <advance width="64.0"/>
  <unicode hex="0150"/>
  <unicode hex="0038"/>
  <unicode hex="004F"/>
  <outline>
    <contour>
      <point x="0.0" y="32.37959183673469" type="line"/>
      <point x="0.0" y="768.3795918367347" type="line"/>
      <point x="64.0" y="768.3795918367347" type="line"/>
      <point x="64.0" y="32.37959183673469" type="line"/>
    </contour>
    <component base="cap"/>
    <component base="cap" yOffset="736.0"/>
  </outline>
</glyph>
<glyph name="_82" format="2">
  <advance width="64.0"/>
  <unicode hex="0152"/>
  <unicode hex="0050"/>
  <outline>
    <contour>
      <point x="0.0" y="32.37959183673469" type="line"/>
      <point x="0.0" y="788.3795918367347" type="line"/>
      <point x="64.0" y="788.3795918367347" type="line"/>
      <point x="64.0" y="32.37959183673469" type="line"/>
    </contour>
    <component base="cap"/>
    <component base="cap" yOffset="756.0"/>
  </outline>
</glyph>
<glyph name="_83" format="2">
  <advance width="64.0"/>
  <unicode hex="0153"/>
  <outline>
    <contour>
      <point x="0.0" y="32.37959183673469" type="line"/>
      <point x="0.0" y="798.3795918367347" type="line"/>
      <point x="64.0" y="798.3795918367347" type="line"/>
      <point x="64.0" y="32.37959183673469" type="line"/>
    </contour>
    <component base="cap"/>
    <component base="cap" yOffset="766.0"/>
  </outline>
</glyph>
<glyph name="_84" format="2">
  <advance width="64.0"/>
  <unicode hex="0154"/>
  <unicode hex="0051"/>
  <outline>
    <contour>
      <point x="0.0" y="32.37959183673469" type="line"/>
      <point x="0.0" y="808.3795918367347" type="line"/>
      <point x="64.0" y="808.3795918367347" type="line"/>
      <point x="64.0" y="32.37959183673469" type="line"/>
    </contour>
    <component base="cap"/>
    <component base="cap" yOffset="776.0"/>
  </outline>
</glyph>
<glyph name="_86" format="2">
  <advance width="64.0"/>
  <unicode hex="0156"/>
  <unicode hex="2587"/>
  <unicode hex="0052"/>
  <outline>
    <contour>
      <point x="0.0" y="32.37959183673469" type="line"/>
      <point x="0.0" y="828.3795918367347" type="line"/>
      <point x="64.0" y="828.3795918367347" type="line"/>
      <point x="64.0" y="32.37959183673469" type="line"/>
    </contour>
    <component base="cap"/>
    <component base="cap" yOffset="796.0"/>
  </outline>
</glyph>
<glyph name="_91" format="2">
  <advance width="64.0"/>
  <unicode hex="015B"/>
  <outline>
    <contour>
      <point x="0.0" y="32.37959183673469" type="line"/>
      <point x="0.0" y="878.3795918367347" type="line"/>
      <point x="64.0" y="878.3795918367347" type="line"/>
      <point x="64.0" y="32.37959183673469" type="line"/>
    </contour>
    <component base="cap"/>
    <component base="cap" yOffset="846.0"/>
  </outline>
</glyph>
<glyph name="_93" format="2">
  <advance width="64.0"/>
  <unicode hex="015D"/>
  <outline>
    <contour>
      <point x="0.0" y="32.37959183673469" type="line"/>
      <point x="0.0" y="898.3795918367347" type="line"/>
      <point x="64.0" y="898.3795918367347" type="line"/>
      <point x="64.0" y="32.37959183673469" type="line"/>
    </contour>
    <component base="cap"/>
    <component base="cap" yOffset="866.0"/>
  </outline>
</glyph>
<glyph name="_94" format="2">
  <advance width="64.0"/>
  <unicode hex="015E"/>
  <unicode hex="0056"/>
  <outline>
    <contour>
      <point x="0.0" y="32.37959183673469" type="line"/>
      <point x="0.0" y="908.3795918367347" type="line"/>
      <point x="64.0" y="908.3795918367347" type="line"/>
      <point x="64.0" y="32.37959183673469" type="line"/>
    </contour>
    <component base="cap"/>
    <component base="cap" yOffset="876.0"/>
  </outline>
</glyph>
<glyph name="_95" format="2">
  <advance width="64.0"/>
  <unicode hex="015F"/>
  <outline>
    <contour>
      <point x="0.0" y="32.37959183673469" type="line"/>
      <point x="0.0" y="918.3795918367347" type="line"/>
      <point x="64.0" y="918.3795918367347" type="line"/>
      <point x="64.0" y="32.37959183673469" type="line"/>
    </contour>
    <component base="cap"/>
    <component base="cap" yOffset="886.0"/>
  </outline>
</glyph>
<glyph name="_96" format="2">
  <advance width="64.0"/>
  <unicode hex="0160"/>
  <unicode hex="0057"/>
  <outline>
    <contour>
      <point x="0.0" y="32.37959183673469" type="line"/>
      <point x="0.0" y="928.3795918367347" type="line"/>
      <point x="64.0" y="928.3795918367347" type="line"/>
      <point x="64.0" y="32.37959183673469" type="line"/>
    </contour>
    <component base="cap"/>
    <component base="cap" yOffset="896.0"/>
  </outline>
</glyph>
<glyph name="_97" format="2">
  <advance width="64.0"/>
  <unicode hex="0161"/>
  <outline>
    <contour>
      <point x="0.0" y="32.37959183673469" type="line"/>
      <point x="0.0" y="938.3795918367347" type="line"/>
      <point x="64.0" y="938.3795918367347" type="line"/>
      <point x="64.0" y="32.37959183673469" type="line"/>
    </contour>
    <component base="cap"/>
    <component base="cap" yOffset="906.0"/>
  </outline>
</glyph>
<glyph name="_100" format="2">
  <advance width="64.0"/>
  <unicode hex="0164"/>
  <unicode hex="007C"/>
  <unicode hex="2588"/>
  <unicode hex="005A"/>
  <outline>
    <contour>
      <point x="0.0" y="32.37959183673469" type="line"/>
      <point x="0.0" y="968.3795918367347" type="line"/>
      <point x="64.0" y="968.3795918367347" type="line"/>
      <point x="64.0" y="32.37959183673469" type="line"/>
    </contour>
    <component base="cap"/>
    <component base="cap" yOffset="936.0"/>
  </outline>
</glyph>
<glyph name="_106" format="2">
  <advance width="64.0"/>
  <unicode hex="016A"/>
  <outline>
    <contour>
      <point x="0.0" y="32.37959183673469" type="line"/>
      <point x="0.0" y="1028.3795918367348" type="line"/>
      <point x="64.0" y="1028.3795918367348" type="line"/>
      <point x="64.0" y="32.37959183673469" type="line"/>
    </contour>
    <component base="cap"/>
    <component base="cap" yOffset="996.0"/>
  </outline>
</glyph>
<glyph name="_108" format="2">
  <advance width="64.0"/>
  <unicode hex="016C"/>
  <outline>
    <contour>
      <point x="0.0" y="32.37959183673469" type="line"/>
      <point x="0.0" y="1048.3795918367348" type="line"/>
      <point x="64.0" y="1048.3795918367348" type="line"/>
      <point x="64.0" y="32.37959183673469" type="line"/>
    </contour>
    <component base="cap"/>
    <component base="cap" yOffset="1016.0"/>
  </outline>
</glyph>
<glyph name="_111" format="2">
  <advance width="64.0"/>
  <unicode hex="016F"/>
  <outline>
    <contour>
      <point x="0.0" y="32.37959183673469" type="line"/>
      <point x="0.0" y="1078.3795918367348" type="line"/>
      <point x="64.0" y="1078.3795918367348" type="line"/>
      <point x="64.0" y="32.37959183673469" type="line"/>
    </contour>
    <component base="cap"/>
    <component base="cap" yOffset="1046.0"/>
  </outline>
</glyph>
<glyph name="_118" format="2">
  <advance width="64.0"/>
  <unicode hex="0176"/>
  <outline>
    <contour>
      <point x="0.0" y="32.37959183673469" type="line"/>
      <point x="0.0" y="1148.3795918367348" type="line"/>
      <point x="64.0" y="1148.3795918367348" type="line"/>
      <point x="64.0" y="32.37959183673469" type="line"/>
    </contour>
    <component base="cap"/>
    <component base="cap" yOffset="1116.0"/>
  </outline>
</glyph>
<glyph name="_120" format="2">
  <advance width="64.0"/>
  <unicode hex="0178"/>
  <outline>
    <contour>
      <point x="0.0" y="32.37959183673469" type="line"/>
      <point x="0.0" y="1168.3795918367348" type="line"/>
      <point x="64.0" y="1168.3795918367348" type="line"/>
      <point x="64.0" y="32.37959183673469" type="line"/>
    </contour>
    <component base="cap"/>
    <component base="cap" yOffset="1136.0"/>
  </outline>
</glyph>
<glyph name="_122" format="2">
  <advance width="64.0"/>
  <unicode hex="017A"/>
  <outline>
    <contour>
      <point x="0.0" y="32.37959183673469" type="line"/>
      <point x="0.0" y="1188.3795918367348" type="line"/>
      <point x="64.0" y="1188.3795918367348" type="line"/>
      <point x="64.0" y="32.37959183673469" type="line"/>
    </contour>
    <component base="cap"/>
    <component base="cap" yOffset="1156.0"/>
  </outline>
</glyph>
<glyph name="_125" format="2">
  <advance width="64.0"/>
  <unicode hex="017D"/>
  <outline>
    <contour>
      <point x="0.0" y="32.37959183673469" type="line"/>
      <point x="0.0" y="1218.3795918367348" type="line"/>
      <point x="64.0" y="1218.3795918367348" type="line"/>
      <point x="64.0" y="32.37959183673469" type="line"/>
    </contour>
    <component base="cap"/>
    <component base="cap" yOffset="1186.0"/>
  </outline>
</glyph>
<glyph name="_1.clip" format="2">
  <advance width="64.0"/>
  <outline>
    <contour>
      <point x="0.0" y="32.37959183673469" type="line"/>
      <point x="0.0" y="-21.620408163265306" type="line"/>
      <point x="64.0" y="-21.620408163265306" type="line"/>
      <point x="64.0" y="32.37959183673469" type="line"/>
    </contour>
    <component base="cap"/>
    <component base="cap" yOffset="-54.0"/>
  </outline>
</glyph>
<glyph name="_12.clip" format="2">
  <advance width="64.0"/>
  <outline>
    <contour>
      <point x="60.0" y="120.0" type="curve" smooth="yes"/>
      <point x="4.0" y="120.0" type="line"/>
      <point x="37.75918367346939" y="120.0"/>
      <point x="64.0" y="93.0"/>
      <point x="64.0" y="60.0" type="curve" smooth="yes"/>
      <point x="64.0" y="60.0" type="line"/>
      <point x="64.0" y="26.0"/>
      <point x="37.75918367346939" y="0.0"/>
      <point x="4.0" y="0.0" type="curve" smooth="yes"/>
      <point x="60.0" y="0.0" type="line"/>
      <point x="26.0" y="0.0"/>
      <point x="0.0" y="26.0"/>
      <point x="0.0" y="60.0" type="curve" smooth="yes"/>
      <point x="0.0" y="60.0" type="line"/>
      <point x="0.0" y="93.0"/>
      <point x="26.0" y="120.0"/>
    </contour>
  </outline>
</glyph>
<glyph name="_13.clip" format="2">
  <advance width="64.0"/>
  <outline>
    <contour>
      <point x="65.0" y="130.0" type="curve" smooth="yes"/>
      <point x="-1.0" y="130.0" type="line"/>
      <point x="34.75" y="130.0"/>
      <point x="64.0" y="100.75"/>
      <point x="64.0" y="65.0" type="curve" smooth="yes"/>
      <point x="64.0" y="65.0" type="line"/>
      <point x="64.0" y="29.25"/>
      <point x="34.75" y="0.0"/>
      <point x="-1.0" y="0.0" type="curve" smooth="yes"/>
      <point x="65.0" y="0.0" type="line"/>
      <point x="29.25" y="0.0"/>
      <point x="0.0" y="29.25"/>
      <point x="0.0" y="65.0" type="curve" smooth="yes"/>
      <point x="0.0" y="65.0" type="line"/>
      <point x="0.0" y="100.75"/>
      <point x="29.25" y="130.0"/>
    </contour>
  </outline>
</glyph>
<glyph name="_14.clip" format="2">
  <advance width="64.0"/>
  <outline>
    <contour>
      <point x="70.0" y="140.0" type="curve" smooth="yes"/>
      <point x="-6.0" y="140.0" type="line"/>
      <point x="32.5" y="140.0"/>
      <point x="64.0" y="108.5"/>
      <point x="64.0" y="70.0" type="curve" smooth="yes"/>
      <point x="64.0" y="70.0" type="line"/>
      <point x="64.0" y="31.5"/>
      <point x="32.5" y="0.0"/>
      <point x="-6.0" y="0.0" type="curve" smooth="yes"/>
      <point x="70.0" y="0.0" type="line"/>
      <point x="31.5" y="0.0"/>
      <point x="0.0" y="31.5"/>
      <point x="0.0" y="70.0" type="curve" smooth="yes"/>
      <point x="0.0" y="70.0" type="line"/>
      <point x="0.0" y="108.5"/>
      <point x="31.5" y="140.0"/>
    </contour>
  </outline>
</glyph>
<glyph name="_15.clip" format="2">
  <advance width="64.0"/>
  <outline>
    <contour>
      <point x="75.0" y="150.0" type="curve" smooth="yes"/>
      <point x="-11.0" y="150.0" type="line"/>
      <point x="30.25" y="150.0"/>
      <point x="64.0" y="116.25"/>
      <point x="64.0" y="75.0" type="curve" smooth="yes"/>
      <point x="64.0" y="75.0" type="line"/>
      <point x="64.0" y="33.75"/>
      <point x="30.25" y="0.0"/>
      <point x="-11.0" y="0.0" type="curve" smooth="yes"/>
      <point x="75.0" y="0.0" type="line"/>
      <point x="33.75" y="0.0"/>
      <point x="0.0" y="33.75"/>
      <point x="0.0" y="75.0" type="curve" smooth="yes"/>
      <point x="0.0" y="75.0" type="line"/>
      <point x="0.0" y="116.25"/>
      <point x="33.75" y="150.0"/>
    </contour>
  </outline>
</glyph>
<glyph name="_17.clip" format="2">
  <advance width="64.0"/>
  <outline>
    <contour>
      <point x="85.0" y="170.0" type="curve" smooth="yes"/>
      <point x="-21.0" y="170.0" type="line"/>
      <point x="25.75" y="170.0"/>
      <point x="64.0" y="131.75"/>
      <point x="64.0" y="85.0" type="curve" smooth="yes"/>
      <point x="64.0" y="85.0" type="line"/>
      <point x="64.0" y="38.25"/>
      <point x="25.75" y="0.0"/>
      <point x="-21.0" y="0.0" type="curve" smooth="yes"/>
      <point x="85.0" y="0.0" type="line"/>
      <point x="38.25" y="0.0"/>
      <point x="0.0" y="38.25"/>
      <point x="0.0" y="85.0" type="curve" smooth="yes"/>
      <point x="0.0" y="85.0" type="line"/>
      <point x="0.0" y="131.75"/>
      <point x="38.25" y="170.0"/>
    </contour>
  </outline>
</glyph>
<glyph name="_18.clip" format="2">
  <advance width="64.0"/>
  <outline>
    <contour>
      <point x="90.0" y="180.0" type="curve" smooth="yes"/>
      <point x="-26.0" y="180.0" type="line"/>
      <point x="23.5" y="180.0"/>
      <point x="64.0" y="139.5"/>
      <point x="64.0" y="90.0" type="curve" smooth="yes"/>
      <point x="64.0" y="90.0" type="line"/>
      <point x="64.0" y="40.5"/>
      <point x="23.5" y="0.0"/>
      <point x="-26.0" y="0.0" type="curve" smooth="yes"/>
      <point x="90.0" y="0.0" type="line"/>
      <point x="40.5" y="0.0"/>
      <point x="0.0" y="40.5"/>
      <point x="0.0" y="90.0" type="curve" smooth="yes"/>
      <point x="0.0" y="90.0" type="line"/>
      <point x="0.0" y="139.5"/>
      <point x="40.5" y="180.0"/>
    </contour>
  </outline>
</glyph>
<glyph name="_19.clip" format="2">
  <advance width="64.0"/>
  <outline>
    <contour>
      <point x="95.0" y="190.0" type="curve" smooth="yes"/>
      <point x="-31.0" y="190.0" type="line"/>
      <point x="21.25" y="190.0"/>
      <point x="64.0" y="147.25"/>
      <point x="64.0" y="95.0" type="curve" smooth="yes"/>
      <point x="64.0" y="95.0" type="line"/>
      <point x="64.0" y="42.75"/>
      <point x="21.25" y="0.0"/>
      <point x="-31.0" y="0.0" type="curve" smooth="yes"/>
      <point x="95.0" y="0.0" type="line"/>
      <point x="42.75" y="0.0"/>
      <point x="0.0" y="42.75"/>
      <point x="0.0" y="95.0" type="curve" smooth="yes"/>
      <point x="0.0" y="95.0" type="line"/>
      <point x="0.0" y="147.25"/>
      <point x="42.75" y="190.0"/>
    </contour>
  </outline>
</glyph>
<glyph name="_20.clip" format="2">
  <advance width="64.0"/>
  <outline>
    <contour>
      <point x="100.0" y="200.0" type="curve" smooth="yes"/>
      <point x="-36.0" y="200.0" type="line"/>
      <point x="19.759183673469387" y="200.0"/>
      <point x="64.0" y="155.0"/>
      <point x="64.0" y="100.0" type="curve" smooth="yes"/>
      <point x="64.0" y="100.0" type="line"/>
      <point x="64.0" y="44.0"/>
      <point x="19.759183673469387" y="0.0"/>
      <point x="-36.0" y="0.0" type="curve" smooth="yes"/>
      <point x="100.0" y="0.0" type="line"/>
      <point x="44.0" y="0.0"/>
      <point x="0.0" y="44.0"/>
      <point x="0.0" y="100.0" type="curve" smooth="yes"/>
      <point x="0.0" y="100.0" type="line"/>
      <point x="0.0" y="155.0"/>
      <point x="44.0" y="200.0"/>
    </contour>
  </outline>
</glyph>
<glyph name="_3.clip" format="2">
  <advance width="64.0"/>
  <outline>
    <contour>
      <point x="0.0" y="32.37959183673469" type="line"/>
      <point x="0.0" y="-1.6204081632653065" type="line"/>
      <point x="64.0" y="-1.6204081632653065" type="line"/>
      <point x="64.0" y="32.37959183673469" type="line"/>
    </contour>
    <component base="cap"/>
    <component base="cap" yOffset="-34.0"/>
  </outline>
</glyph>
<glyph name="_5.clip" format="2">
  <advance width="64.0"/>
  <outline>
    <contour>
      <point x="0.0" y="32.37959183673469" type="line"/>
      <point x="0.0" y="18.379591836734694" type="line"/>
      <point x="64.0" y="18.379591836734694" type="line"/>
      <point x="64.0" y="32.37959183673469" type="line"/>
    </contour>
    <component base="cap"/>
    <component base="cap" yOffset="-14.0"/>
  </outline>
</glyph>
<glyph name="_6.clip" format="2">
  <advance width="64.0"/>
  <outline>
    <contour>
      <point x="0.0" y="32.37959183673469" type="line"/>
      <point x="0.0" y="28.379591836734694" type="line"/>
      <point x="64.0" y="28.379591836734694" type="line"/>
      <point x="64.0" y="32.37959183673469" type="line"/>
    </contour>
    <component base="cap"/>
    <component base="cap" yOffset="-4.0"/>
  </outline>
</glyph>
<glyph name="cap" format="2">
  <outline>
    <contour>
      <point x="32.0" y="64.0" type="curve" smooth="yes"/>
      <point x="32.0" y="64.0" type="line"/>
      <point x="49.6" y="64.0"/>
      <point x="64.0" y="49.6"/>
      <point x="64.0" y="32.0" type="curve" smooth="yes"/>
      <point x="64.0" y="32.0" type="line"/>
      <point x="64.0" y="14.4"/>
      <point x="49.6" y="0.0"/>
      <point x="32.0" y="0.0" type="curve" smooth="yes"/>
      <point x="32.0" y="0.0" type="line"/>
      <point x="14.4" y="0.0"/>
      <point x="0.0" y="14.4"/>
      <point x="0.0" y="32.0" type="curve" smooth="yes"/>
      <point x="0.0" y="32.0" type="line"/>
      <point x="0.0" y="49.6"/>
      <point x="14.4" y="64.0"/>
    </contour>
  </outline>
</glyph>
